<svg version="1.1" viewBox="0 0 16811.453 6585" xmlns="http://www.w3.org/2000/svg" xmlns:xlink="http://www.w3.org/1999/xlink"><path d="M0 6585H16812V0H0z" fill="#fff"/><path d="M2145 1884C2156 1873 2167 1862 2177 1850C2197 1827 2217 1806 2240 1786C2247 1780 2254 1774 2261 1770C2263 1768 2263 1764 2265 1762C2256 1766 2250 1773 2240 1777C2238 1777 2236 1775 2238 1773C2245 1768 2252 1763 2258 1758H2257C2255 1758 2255 1756 2255 1754C2230 1750 2212 1767 2195 1782C2191 1784 2187 1780 2186 1780C2158 1789 2137 1814 2109 1825V1821C2098 1825 2087 1832 2075 1834C2058 1838 2043 1836 2028 1836C2005 1838 1982 1843 1959 1848C1958 1848 1958 1848 1957 1849C1945 1852 1933 1857 1922 1863L1918 1867C1914 1871 1910 1876 1905 1878C1893 1884 1884 1894 1874 1903C1873 1904 1872 1904 1871 1904C1861 1914 1851 1924 1841 1933C1840 1934 1837 1934 1835 1934C1835 1933 1836 1933 1836 1932C1838 1929 1839 1927 1841 1924L1847 1915C1850 1911 1852 1907 1855 1904C1856 1903 1856 1902 1855 1902C1854 1901 1853 1901 1852 1901C1861 1892 1873 1884 1884 1877C1883 1877 1881 1876 1882 1875C1883 1873 1884 1872 1885 1870C1885 1869 1885 1869 1886 1868C1886 1867 1885 1867 1885 1866L1876 1872C1871 1876 1868 1884 1861 1884H1858C1857 1884 1856 1884 1856 1883V1882C1856 1881 1857 1881 1857 1880C1857 1879 1858 1879 1858 1878C1858 1878 1858 1877 1859 1877C1859 1876 1860 1875 1860 1875C1860 1874 1861 1874 1861 1873C1862 1872 1863 1870 1863 1869C1863 1868 1864 1868 1864 1867C1865 1866 1865 1865 1866 1864C1867 1862 1866 1861 1865 1861C1868 1856 1873 1853 1878 1850H1877C1884 1846 1892 1842 1899 1838L1902 1835C1891 1839 1882 1844 1872 1850C1872 1850 1870 1851 1869 1852C1869 1852 1867 1853 1864 1850V1849C1866 1845 1872 1843 1875 1840C1877 1840 1879 1840 1879 1842C1940 1795 2023 1806 2093 1782C2099 1778 2104 1774 2110 1771C2119 1767 2127 1758 2138 1752C2153 1741 2164 1727 2170 1709C2170 1707 2168 1705 2168 1705C2143 1731 2115 1752 2085 1767C2045 1788 2002 1784 1960 1790C1962 1786 1966 1786 1969 1786C1969 1780 1973 1778 1977 1775H1983C1985 1775 1985 1771 1987 1771C1991 1771 1997 1769 1995 1769C1989 1761 1978 1775 1969 1769C1973 1765 1971 1760 1975 1758H1983C1983 1754 1987 1750 1987 1750C2015 1733 2042 1720 2068 1705C2062 1705 2059 1711 2053 1707C2057 1707 2053 1701 2057 1701C2078 1695 2095 1684 2116 1676C2108 1676 2103 1682 2095 1676C2099 1674 2101 1670 2106 1670V1664C2106 1662 2108 1662 2110 1662C2108 1662 2106 1660 2106 1660C2108 1656 2114 1658 2117 1654C2115 1654 2111 1654 2111 1652C2117 1644 2126 1643 2136 1641C2134 1637 2128 1641 2128 1637C2128 1635 2130 1635 2132 1635H2128C2124 1633 2126 1629 2126 1627C2137 1614 2137 1597 2143 1582C2141 1582 2139 1582 2139 1580C2120 1601 2090 1608 2062 1616H2049C2040 1620 2026 1620 2017 1614C2009 1610 2006 1605 1998 1599C1983 1590 1968 1582 1951 1576C1904 1561 1855 1553 1806 1555C1827 1544 1850 1543 1872 1536C1904 1527 1934 1515 1968 1517C1962 1515 1955 1517 1949 1517C1923 1515 1896 1523 1868 1528C1849 1532 1832 1539 1813 1543C1802 1547 1796 1558 1783 1556V1550C1802 1527 1825 1505 1855 1503C1889 1497 1921 1503 1955 1507C1980 1509 2002 1515 2027 1520C2036 1520 2038 1535 2046 1537C2057 1541 2069 1537 2080 1545C2080 1541 2078 1537 2080 1534C2088 1526 2097 1536 2105 1532C2120 1523 2092 1506 2084 1492C2084 1490 2086 1488 2086 1488C2101 1501 2112 1516 2131 1526C2140 1530 2163 1535 2159 1524C2150 1503 2131 1486 2115 1467V1459C2111 1459 2111 1457 2109 1455V1447C2101 1443 2103 1436 2100 1430C2094 1421 2098 1407 2094 1396C2090 1385 2088 1375 2086 1364C2080 1332 2073 1304 2069 1273C2065 1237 2090 1209 2107 1177C2120 1154 2135 1132 2160 1117C2166 1094 2181 1075 2196 1057C2211 1039 2236 1027 2254 1019C2280 1007 2304 1e3 2304 1e3H1e3V2e3H1927C1963 1974 1999 1962 2049 1937C2073 1927 2127 1902 2145 1884M1855 1748C1851 1748 1844 1750 1846 1746C1848 1737 1861 1737 1869 1733C1873 1731 1878 1727 1882 1729C1886 1735 1891 1733 1895 1737C1883 1748 1868 1743 1855 1748M1565 1707C1565 1707 1563 1705 1563 1703C1588 1671 1606 1641 1624 1607C1649 1594 1669 1575 1688 1554C1720 1520 1754 1490 1794 1471C1809 1465 1828 1467 1843 1473C1837 1481 1828 1479 1820 1484C1818 1484 1816 1484 1814 1482C1816 1480 1816 1478 1816 1476C1797 1497 1771 1506 1756 1531C1745 1550 1737 1574 1713 1580C1705 1582 1715 1574 1711 1576C1652 1612 1611 1656 1565 1707M1722 1582C1720 1586 1718 1586 1716 1590C1714 1594 1712 1596 1708 1598C1706 1598 1704 1598 1704 1596C1706 1588 1712 1581 1719 1579C1722 1578 1722 1580 1722 1582M1810 1865C1809 1867 1807 1869 1805 1871C1807 1871 1809 1873 1807 1874C1803 1878 1798 1882 1793 1884H1790C1788 1886 1785 1888 1783 1891C1781 1893 1770 1892 1773 1889C1778 1885 1782 1880 1787 1876C1790 1874 1793 1871 1795 1868C1796 1866 1797 1865 1799 1864C1802 1862 1812 1861 1810 1865M1776 1850C1768 1855 1761 1860 1754 1865C1746 1870 1737 1873 1729 1877C1728 1876 1727 1876 1726 1876C1719 1880 1713 1885 1707 1891L1697 1901C1696 1902 1696 1903 1694 1904C1693 1905 1690 1905 1690 1903C1689 1904 1688 1904 1687 1905C1686 1906 1685 1906 1684 1907H1682C1680 1909 1677 1911 1675 1913C1671 1917 1667 1920 1664 1925V1926L1663 1927C1663 1927 1663 1928 1662 1928C1662 1929 1661 1929 1661 1930C1661 1930 1660 1931 1659 1931L1658 1930C1658 1930 1658 1929 1657 1929C1656 1928 1656 1927 1655 1926V1925C1657 1923 1659 1921 1661 1918C1662 1917 1662 1916 1663 1916C1664 1915 1665 1913 1666 1912C1666 1911 1667 1911 1667 1910C1669 1907 1671 1905 1673 1902L1674 1901C1675 1900 1676 1898 1677 1897C1678 1896 1678 1895 1679 1893V1892C1680 1890 1680 1889 1681 1888V1887C1681 1886 1681 1886 1682 1885C1682 1884 1682 1883 1683 1882V1881C1685 1877 1688 1874 1691 1871H1690C1687 1873 1685 1875 1683 1877C1681 1879 1677 1876 1680 1874C1682 1873 1683 1871 1684 1870C1687 1867 1690 1863 1694 1860C1696 1858 1698 1857 1700 1856L1701 1855C1702 1853 1704 1852 1705 1850C1723 1833 1754 1833 1777 1822C1786 1818 1798 1824 1807 1822C1813 1822 1818 1822 1824 1826C1807 1829 1792 1840 1776 1850M1815 1718C1813 1716 1821 1718 1823 1714H1808C1806 1714 1806 1712 1806 1710C1797 1712 1785 1716 1776 1718C1763 1722 1751 1731 1736 1735C1715 1743 1698 1760 1676 1767C1674 1767 1674 1765 1674 1763C1676 1757 1683 1755 1687 1750C1687 1748 1687 1746 1685 1746C1700 1725 1721 1714 1740 1697V1691C1746 1683 1755 1680 1759 1670C1761 1664 1769 1657 1778 1653C1776 1651 1772 1651 1772 1647C1764 1647 1757 1651 1749 1645C1753 1642 1757 1640 1761 1638C1759 1638 1758 1637 1757 1635C1755 1631 1761 1627 1766 1626C1774 1624 1783 1624 1789 1618C1776 1616 1761 1622 1747 1614C1756 1589 1772 1569 1794 1557C1796 1557 1800 1557 1800 1559C1800 1568 1794 1576 1785 1578C1800 1582 1815 1582 1830 1589C1828 1593 1824 1591 1822 1591C1831 1597 1843 1593 1852 1600C1846 1606 1841 1600 1835 1600C1894 1617 1956 1630 2005 1668C1963 1689 1920 1698 1875 1708C1869 1708 1866 1708 1860 1706C1860 1708 1860 1712 1858 1712C1850 1712 1845 1712 1839 1716C1832 1722 1821 1724 1815 1718" fill="#000091"/><path d="M2745 1366C2753 1368 2764 1368 2764 1372C2760 1387 2738 1391 2726 1406H2720C2714 1410 2716 1419 2711 1419C2705 1417 2700 1419 2694 1421C2702 1429 2711 1434 2722 1432C2724 1432 2728 1436 2728 1440C2728 1440 2730 1440 2732 1438C2734 1438 2736 1438 2736 1440V1448C2730 1456 2721 1452 2713 1454C2728 1458 2743 1458 2757 1454C2768 1450 2757 1431 2765 1422C2761 1422 2765 1416 2761 1416C2765 1412 2769 1407 2772 1405C2776 1405 2781 1403 2783 1399C2783 1395 2775 1393 2777 1390C2788 1382 2798 1371 2794 1360C2792 1354 2777 1354 2768 1350C2759 1346 2747 1350 2736 1352C2727 1352 2717 1358 2708 1360C2695 1364 2683 1371 2672 1379C2685 1373 2698 1371 2713 1368C2724 1366 2733 1364 2745 1366" fill="#808080"/><path d="M3755 1e3H2681C2681 1e3 2683 1e3 2691 1005C2700 1010 2711 1016 2718 1019C2732 1026 2745 1035 2754 1049C2758 1055 2763 1066 2760 1074C2756 1083 2754 1099 2745 1102C2734 1108 2719 1108 2705 1106C2697 1106 2690 1104 2682 1102C2710 1113 2737 1127 2756 1153C2758 1157 2765 1159 2773 1159C2775 1159 2775 1163 2775 1165C2771 1169 2767 1171 2769 1176H2775C2784 1172 2783 1153 2796 1159C2805 1165 2809 1178 2804 1187C2796 1195 2789 1200 2781 1206C2779 1210 2779 1215 2781 1219C2787 1227 2789 1234 2790 1242C2796 1255 2798 1270 2803 1284C2811 1312 2818 1341 2816 1369C2816 1384 2808 1397 2814 1412C2818 1427 2827 1438 2835 1452C2843 1463 2850 1471 2856 1482C2867 1501 2888 1520 2879 1541C2873 1554 2853 1552 2839 1560C2828 1569 2837 1585 2843 1594C2852 1611 2832 1622 2818 1628C2822 1634 2829 1632 2831 1636C2833 1645 2842 1651 2837 1661C2829 1672 2807 1678 2818 1695C2826 1708 2821 1723 2816 1737C2810 1754 2795 1762 2782 1765C2771 1769 2757 1769 2746 1767C2742 1765 2738 1763 2735 1763C2703 1759 2671 1750 2639 1750C2630 1752 2620 1754 2613 1757C2604 1763 2597 1770 2590 1777C2589 1779 2587 1780 2586 1782C2585 1783 2584 1784 2584 1785L2582 1787C2576 1794 2572 1801 2567 1809C2567 1810 2566 1810 2566 1810C2566 1811 2565 1812 2564 1813C2558 1824 2553 1836 2550 1848C2537 1891 2543 1928 2552 1937C2554 1939 2614 1958 2656 1977C2676 1986 2689 1992 2701 2e3H3756V1e3z" fill="#e1000f"/><path d="M1e3 3250H1437.1406V3111.7812H1152.1406V2500H1e3zM1609.6406 2808.5781L1625.7188 2500H1473.5781L1490.7188 2808.5781zM1804.6406 3250H1956.7812V2500H1804.6406zM2177.5 3250H2329.6406V2711.0781L2665 3250H2860V2500H2707.8438V3036.7812L2372.5 2500H2177.5zM3013.2031 3146.0781C3079.625 3225.3594 3165.3438 3271.4219 3291.7656 3271.4219C3428.9062 3271.4219 3538.2031 3185.7188 3540.3438 3046.4375C3540.3438 2792.5 3197.4844 2823.5781 3197.4844 2689.6406C3197.4844 2645.7188 3231.7656 2611.4375 3284.2656 2611.4375C3341.0625 2611.4375 3390.3438 2647.8594 3434.2656 2704.6406L3545.7031 2605C3482.4844 2528.9375 3395.7031 2478.5781 3283.2031 2478.5781C3140.7031 2478.5781 3043.2031 2577.1406 3043.2031 2696.0781C3043.2031 2945.7188 3386.0625 2915.7188 3386.0625 3049.6406C3386.0625 3104.2812 3349.625 3136.4219 3289.625 3136.4219C3228.5625 3136.4219 3168.5625 3102.1406 3123.5625 3044.2812zM3628.2031 2638.2188H3859.625V3250H4011.7656V2638.2188H4243.1875V2500H3628.2031zM4387.8438 3250H4539.9844V2500H4387.8438zM4683.5625 2638.2188H4914.9844V3250H5067.125V2638.2188H5298.5469V2500H4683.5625zM5885.7031 2969.2812C5885.7031 3070 5827.8438 3128.9219 5734.6406 3128.9219C5639.2812 3128.9219 5582.4844 3070 5582.4844 2969.2812V2500H5430.3438V2956.4375C5430.3438 3153.5781 5546.0625 3271.4219 5733.5625 3271.4219C5922.125 3271.4219 6037.8438 3153.5781 6037.8438 2956.4375V2500H5885.7031zM6168.5781 2638.2188H6400V3250H6552.1406V2638.2188H6783.5625V2500H6168.5781zM6928.2188 3250H7080.3594V2500H6928.2188zM7635.3594 2478.5781C7398.5781 2478.5781 7236.7969 2660.7188 7236.7969 2875C7236.7969 3089.2812 7398.5781 3271.4219 7635.3594 3271.4219C7871.0781 3271.4219 8032.8594 3089.2812 8032.8594 2875C8032.8594 2660.7188 7871.0781 2478.5781 7635.3594 2478.5781zM7635.3594 3128.9219C7493.9375 3128.9219 7393.2188 3018.5781 7393.2188 2875C7393.2188 2731.4375 7493.9375 2621.0781 7635.3594 2621.0781C7775.7188 2621.0781 7876.4219 2731.4375 7876.4219 2875C7876.4219 3018.5781 7775.7188 3128.9219 7635.3594 3128.9219zM8189.2812 3250H8341.4219V2711.0781L8676.7812 3250H8871.7812V2500H8719.625V3036.7812L8384.2812 2500H8189.2812z"/><path d="M3484 5306C3506 5306 3525 5323 3515 5362L3414 5389C3430 5341 3460 5306 3484 5306M3540 5470H3520C3495 5500 3467 5524 3440 5524C3412 5524 3398 5507 3398 5470C3398 5455 3400 5439 3403 5425L3567 5371C3599 5295 3560 5262 3515 5262C3437 5262 3349 5398 3349 5505C3349 5556 3373 5584 3411 5584C3456 5584 3502 5541 3540 5470M3514 5226L3607 5141V5129H3545L3490 5227H3514zM3165 5308H3219L3133 5544C3125 5564 3136 5584 3157 5584C3218 5584 3291 5532 3319 5458H3304C3282 5489 3234 5523 3198 5530L3277 5308H3358L3368 5274H3289L3319 5189H3288L3232 5274L3165 5283zM3109 5296C3116 5274 3101 5262 3090 5262C3043 5262 2986 5305 2964 5364H2979C2994 5342 3020 5318 3045 5314L2954 5550C2946 5572 2962 5584 2974 5584C3019 5584 3072 5541 3094 5482H3079C3064 5504 3038 5528 3013 5532zM3118 5202C3138 5202 3155 5185 3155 5165C3155 5145 3138 5128 3118 5128C3097 5128 3081 5145 3081 5165C3081 5186 3097 5202 3118 5202M2679 5328C2693 5328 2701 5350 2679 5399L2615 5541C2603 5568 2616 5585 2642 5585C2658 5585 2665 5581 2672 5564L2735 5398C2764 5362 2818 5324 2842 5324C2859 5324 2857 5338 2846 5360L2749 5545C2740 5563 2752 5585 2773 5585C2820 5585 2877 5542 2899 5483H2882C2867 5505 2841 5529 2816 5533L2899 5365C2910 5344 2915 5324 2915 5308C2915 5281 2900 5263 2871 5263C2830 5263 2795 5309 2745 5366V5322C2745 5291 2735 5263 2707 5263C2674 5263 2644 5315 2620 5365H2635C2652 5341 2667 5328 2679 5328M2614 5334C2625 5295 2619 5262 2590 5262C2553 5262 2541 5287 2505 5365V5321C2505 5290 2495 5262 2467 5262C2434 5262 2404 5314 2380 5364H2395C2411 5341 2426 5327 2438 5327C2452 5327 2460 5349 2438 5398L2374 5540C2362 5567 2375 5584 2401 5584C2417 5584 2424 5580 2431 5563L2492 5397C2510 5375 2526 5356 2546 5335H2614zM2265 5306C2287 5306 2306 5323 2296 5362L2195 5389C2212 5341 2241 5306 2265 5306M2321 5470H2301C2276 5500 2248 5524 2221 5524C2193 5524 2179 5507 2179 5470C2179 5455 2181 5439 2184 5425L2348 5371C2380 5295 2342 5262 2296 5262C2218 5262 2130 5398 2130 5505C2130 5556 2154 5584 2192 5584C2237 5584 2283 5541 2321 5470M1946 5308H2e3L1914 5544C1906 5564 1917 5584 1938 5584C1999 5584 2073 5532 2100 5458H2085C2063 5489 2015 5523 1979 5530L2058 5308H2139L2149 5274H2070L2100 5189H2069L2013 5274L1946 5283zM1659 5492C1659 5419 1740 5320 1786 5320C1796 5320 1806 5321 1814 5324L1767 5450C1740 5483 1698 5523 1678 5523C1666 5523 1659 5514 1659 5492M1908 5248L1883 5246L1855 5274H1850C1731 5274 1603 5422 1603 5539C1603 5566 1618 5584 1647 5584C1682 5584 1716 5534 1755 5481L1753 5500C1748 5554 1765 5584 1793 5584C1826 5584 1856 5532 1879 5482H1864C1848 5505 1833 5519 1821 5519C1809 5519 1800 5496 1821 5448zM1653 5334C1664 5295 1658 5262 1629 5262C1592 5262 1580 5287 1544 5365V5321C1544 5290 1534 5262 1505 5262C1472 5262 1442 5314 1419 5364H1434C1450 5341 1465 5327 1477 5327C1491 5327 1499 5349 1477 5398L1412 5541C1400 5568 1413 5585 1439 5585C1455 5585 1462 5581 1469 5564L1532 5397C1550 5375 1566 5356 1586 5335H1653zM1234 5573L1240 5555C1161 5540 1151 5540 1183 5454L1213 5373H1276C1315 5373 1316 5390 1310 5433H1333L1385 5290H1362C1342 5324 1327 5350 1284 5350H1221L1264 5233C1279 5191 1286 5183 1340 5183H1354C1409 5183 1416 5198 1416 5256H1438L1456 5159H1151L1145 5177C1208 5190 1214 5196 1185 5278L1120 5455C1090 5536 1078 5543 1005 5556L1e3 5574H1234zM2747 4617C2769 4617 2788 4634 2778 4673L2677 4700C2693 4652 2723 4617 2747 4617M2803 4781H2783C2758 4811 2730 4835 2703 4835C2675 4835 2661 4818 2661 4781C2661 4766 2663 4750 2666 4736L2830 4682C2862 4606 2823 4573 2778 4573C2700 4573 2612 4709 2612 4816C2612 4867 2636 4895 2674 4895C2719 4896 2765 4852 2803 4781M2777 4537L2870 4452V4440H2808L2753 4538H2777zM2428 4619H2482L2396 4855C2388 4875 2399 4895 2420 4895C2481 4895 2554 4843 2582 4769H2567C2545 4800 2497 4834 2461 4841L2540 4619H2621L2631 4585H2552L2582 4500H2551L2495 4585L2428 4595zM2372 4608C2379 4586 2364 4574 2352 4574C2305 4574 2248 4617 2226 4676H2241C2256 4654 2282 4630 2307 4626L2216 4862C2208 4884 2224 4896 2236 4896C2281 4896 2334 4853 2356 4794H2341C2326 4816 2300 4840 2275 4844zM2381 4514C2401 4514 2418 4497 2418 4477C2418 4457 2401 4440 2381 4440C2360 4440 2344 4457 2344 4477C2344 4497 2360 4514 2381 4514M2091 4844L2241 4446L2236 4439L2132 4451V4463L2152 4478C2170 4492 2164 4505 2148 4550L2034 4854C2024 4872 2037 4894 2058 4894C2105 4894 2156 4851 2178 4792H2163C2147 4815 2115 4839 2091 4844M1785 4803C1785 4730 1866 4631 1912 4631C1922 4631 1931 4632 1940 4635L1892 4761C1865 4794 1823 4834 1803 4834C1792 4835 1785 4825 1785 4803M2034 4560L2009 4558L1981 4586H1976C1857 4586 1729 4734 1729 4851C1729 4878 1744 4896 1773 4896C1808 4896 1842 4846 1881 4793L1879 4812C1874 4866 1891 4896 1919 4896C1952 4896 1982 4844 2005 4794H1990C1974 4817 1959 4831 1947 4831C1935 4831 1926 4808 1947 4761zM1455 4953C1455 4922 1485 4902 1528 4885C1542 4892 1564 4900 1592 4909C1637 4924 1654 4930 1654 4943C1654 4972 1613 4994 1538 4994C1482 4995 1455 4983 1455 4953M1578 4762C1558 4762 1551 4745 1551 4726C1551 4667 1579 4596 1624 4596C1644 4596 1651 4613 1651 4632C1651 4690 1622 4762 1578 4762M1706 4924C1706 4886 1672 4872 1617 4856C1570 4842 1548 4838 1548 4822C1548 4810 1558 4795 1578 4784C1656 4780 1705 4710 1705 4648C1705 4637 1703 4627 1700 4618H1753L1763 4584H1673C1661 4576 1646 4572 1629 4572C1547 4572 1494 4644 1494 4708C1494 4749 1518 4777 1556 4782C1518 4800 1496 4819 1496 4843C1496 4857 1501 4867 1513 4876C1425 4902 1389 4935 1389 4973C1389 5014 1443 5031 1507 5031C1615 5032 1706 4973 1706 4924M1298 4684C1337 4684 1338 4701 1332 4744H1355L1407 4601H1384C1364 4635 1349 4661 1306 4661H1219L1262 4544C1277 4502 1285 4494 1338 4494H1376C1431 4494 1438 4509 1438 4567H1460L1478 4470H1151L1145 4488C1208 4501 1214 4507 1185 4589L1120 4766C1090 4847 1078 4854 1005 4867L1e3 4885H1364L1429 4782H1404C1362 4824 1319 4861 1238 4861C1141 4861 1150 4856 1182 4766L1212 4685H1298zM1345 4440L1438 4372V4360H1376L1321 4440zM2735 3929C2757 3929 2776 3946 2766 3985L2665 4012C2681 3963 2711 3929 2735 3929M2791 4093H2771C2746 4123 2718 4147 2691 4147C2663 4147 2649 4130 2649 4093C2649 4078 2651 4062 2654 4048L2818 3994C2850 3918 2811 3885 2766 3885C2688 3885 2600 4021 2600 4128C2600 4179 2624 4207 2662 4207C2707 4207 2753 4164 2791 4093M2765 3849L2858 3764V3752H2796L2741 3850H2765zM2416 3930H2471L2385 4166C2377 4186 2388 4206 2409 4206C2470 4206 2544 4154 2571 4080H2556C2534 4111 2486 4145 2450 4152L2529 3930H2610L2620 3896H2541L2571 3811H2540L2484 3896L2417 3905V3930zM2388 3957C2399 3918 2393 3885 2364 3885C2327 3885 2315 3910 2279 3988V3944C2279 3913 2269 3885 2241 3885C2208 3885 2178 3937 2154 3987H2169C2185 3964 2200 3950 2212 3950C2226 3950 2234 3972 2212 4021L2148 4163C2136 4190 2149 4207 2175 4207C2191 4207 2198 4203 2205 4186L2268 4020C2286 3998 2302 3979 2322 3958H2388zM2039 3929C2061 3929 2080 3946 2070 3985L1969 4012C1985 3963 2015 3929 2039 3929M2095 4093H2075C2050 4123 2022 4147 1995 4147C1967 4147 1953 4130 1953 4093C1953 4078 1955 4062 1958 4048L2122 3994C2154 3918 2116 3885 2070 3885C1992 3885 1904 4021 1904 4128C1904 4179 1928 4207 1966 4207C2011 4207 2057 4164 2095 4093M1713 4159C1697 4159 1674 4144 1674 4131C1674 4127 1681 4108 1690 4085L1716 4015C1744 3981 1788 3944 1813 3944C1828 3944 1839 3954 1839 3975C1838 4041 1778 4159 1713 4159M1895 3950C1895 3902 1883 3884 1849 3884C1807 3884 1768 3929 1728 3983L1812 3757L1807 3750L1703 3762V3774L1723 3789C1741 3803 1735 3817 1719 3861L1628 4100C1620 4120 1611 4144 1611 4150C1611 4178 1649 4205 1684 4205C1763 4207 1895 4062 1895 3950M1588 3919C1594 3897 1580 3885 1568 3885C1521 3885 1464 3928 1442 3987H1457C1472 3965 1498 3941 1523 3937L1432 4173C1424 4195 1440 4207 1452 4207C1497 4207 1550 4164 1572 4105H1557C1542 4127 1516 4151 1491 4155zM1598 3825C1618 3825 1635 3808 1635 3788C1635 3768 1618 3751 1598 3751C1577 3751 1561 3768 1561 3788C1561 3808 1577 3825 1598 3825M1367 3780H1151L1145 3798C1208 3811 1214 3817 1185 3899L1120 4076C1090 4157 1078 4164 1005 4177L1e3 4195H1328L1399 4068H1374C1333 4113 1286 4170 1213 4170C1158 4170 1150 4160 1181 4075L1246 3898C1276 3817 1288 3810 1361 3797z"/><path d="M11092.484 3050H11204.062V2500H11092.484zM11344.703 3050H11444.484V2791.5C11459.406 2766.3594 11486.125 2732.5781 11536.406 2732.5781C11585.125 2732.5781 11614.188 2765.5781 11614.188 2818.2188V3050H11715.547V2814.2812C11715.547 2697.2188 11647.188 2638.2969 11561.547 2638.2969C11508.906 2638.2969 11471.984 2658.7188 11444.484 2685.4375V2654H11344.703zM11853.844 2905.4375C11853.844 3002.0781 11900.984 3057.8594 11999.984 3057.8594C12032.984 3057.8594 12056.547 3053.9219 12076.188 3045.2812V2958.0781C12062.844 2963.5781 12044.766 2966.7188 12017.266 2966.7188C11977.984 2966.7188 11954.406 2949.4375 11954.406 2905.4375V2745.1406H12075.406V2654H11954.406V2555H11853.844V2654H11779.984V2745.1406H11853.844zM12215.266 2584.8594C12250.625 2584.8594 12279.688 2555 12279.688 2519.6562C12279.688 2484.2969 12250.625 2454.4375 12215.266 2454.4375C12179.906 2454.4375 12150.047 2484.2969 12150.047 2519.6562C12150.047 2555 12179.906 2584.8594 12215.266 2584.8594zM12164.984 3050H12264.766V2654H12164.984zM12409.344 2905.4375C12409.344 3002.0781 12456.484 3057.8594 12555.484 3057.8594C12588.484 3057.8594 12612.047 3053.9219 12631.688 3045.2812V2958.0781C12618.344 2963.5781 12600.266 2966.7188 12572.766 2966.7188C12533.484 2966.7188 12509.906 2949.4375 12509.906 2905.4375V2745.1406H12630.906V2654H12509.906V2555H12409.344V2654H12335.484V2745.1406H12409.344zM12980.547 2878.7188C12980.547 2936.0781 12950.688 2971.4219 12896.484 2971.4219C12841.484 2971.4219 12811.625 2936.0781 12811.625 2878.7188V2654H12711.062V2874C12711.062 2992.6406 12779.406 3065.7188 12895.703 3065.7188C13011.984 3065.7188 13081.125 2992.6406 13081.125 2874V2654H12980.547zM13191.906 3050H13291.688V2460.7188H13191.906zM13641.328 2591.1562L13735.609 2460.7188H13627.188L13545.469 2591.1562zM13775.688 2985.5781L13704.188 2929C13682.969 2957.2812 13647.609 2976.1406 13604.406 2976.1406C13536.828 2976.1406 13491.266 2937.6406 13484.969 2872.4375H13762.328C13765.469 2859.0781 13768.609 2837.8594 13768.609 2815.8594C13768.609 2712.1406 13696.328 2638.2969 13586.328 2638.2969C13456.688 2638.2969 13382.828 2734.9375 13382.828 2852C13382.828 2967.5 13462.188 3065.7188 13602.828 3065.7188C13677.469 3065.7188 13738.766 3035.0781 13775.688 2985.5781zM13586.328 2721.5781C13638.969 2721.5781 13668.047 2757.7188 13669.609 2797H13491.266C13504.625 2745.1406 13537.625 2721.5781 13586.328 2721.5781zM14049.891 2852C14049.891 2967.5 14126.109 3065.7188 14251.031 3065.7188C14302.109 3065.7188 14342.172 3050 14373.609 3022.5V3050H14474.172V2460.7188H14373.609V2681.5C14342.172 2654 14302.109 2638.2969 14251.031 2638.2969C14126.109 2638.2969 14049.891 2736.5 14049.891 2852zM14154.391 2852C14154.391 2782.8594 14197.609 2732.5781 14265.172 2732.5781C14310.75 2732.5781 14346.891 2752.2188 14373.609 2791.5V2912.5C14347.672 2951 14311.531 2971.4219 14265.172 2971.4219C14197.609 2971.4219 14154.391 2921.1406 14154.391 2852zM14958.172 2985.5781L14886.672 2929C14865.453 2957.2812 14830.094 2976.1406 14786.891 2976.1406C14719.312 2976.1406 14673.75 2937.6406 14667.453 2872.4375H14944.812C14947.953 2859.0781 14951.094 2837.8594 14951.094 2815.8594C14951.094 2712.1406 14878.812 2638.2969 14768.812 2638.2969C14639.172 2638.2969 14565.312 2734.9375 14565.312 2852C14565.312 2967.5 14644.672 3065.7188 14785.312 3065.7188C14859.953 3065.7188 14921.25 3035.0781 14958.172 2985.5781zM14768.812 2721.5781C14821.453 2721.5781 14850.531 2757.7188 14852.094 2797H14673.75C14687.109 2745.1406 14720.109 2721.5781 14768.812 2721.5781zM15260.672 3050H15360.453V2460.7188H15260.672zM15593.031 3065.7188C15639.391 3065.7188 15685.734 3044.5 15710.875 3013.0781V3050H15811.453V2793.8594C15811.453 2706.6406 15752.531 2638.2969 15637.812 2638.2969C15566.312 2638.2969 15507.391 2668.1406 15472.031 2716.8594L15545.891 2772.6406C15563.953 2742 15596.172 2725.5 15634.672 2725.5C15679.453 2725.5 15710.875 2752.2188 15710.875 2793.8594V2804.0781L15591.453 2824.5C15505.812 2838.6406 15459.453 2885 15459.453 2945.5C15459.453 3020.1406 15513.672 3065.7188 15593.031 3065.7188zM15558.453 2941.5781C15558.453 2916.4375 15574.953 2899.1406 15617.391 2892.0781L15710.875 2875.5781V2929.7812C15690.453 2962 15658.234 2985.5781 15613.453 2985.5781C15579.672 2985.5781 15558.453 2966.7188 15558.453 2941.5781z"/><path d="M11092.484 3735.3333C11092.484 3850.8333 11168.703 3949.0521 11293.625 3949.0521C11344.703 3949.0521 11384.766 3933.3333 11416.203 3905.8333V3933.3333H11516.766V3344.0521H11416.203V3564.8333C11384.766 3537.3333 11344.703 3521.6302 11293.625 3521.6302C11168.703 3521.6302 11092.484 3619.8333 11092.484 3735.3333zM11196.984 3735.3333C11196.984 3666.1927 11240.203 3615.9115 11307.766 3615.9115C11353.344 3615.9115 11389.484 3635.5521 11416.203 3674.8333V3795.8333C11390.266 3834.3333 11354.125 3854.7552 11307.766 3854.7552C11240.203 3854.7552 11196.984 3804.474 11196.984 3735.3333zM11686.484 3468.1927C11721.844 3468.1927 11750.906 3438.3333 11750.906 3402.9896C11750.906 3367.6302 11721.844 3337.7708 11686.484 3337.7708C11651.125 3337.7708 11621.266 3367.6302 11621.266 3402.9896C11621.266 3438.3333 11651.125 3468.1927 11686.484 3468.1927zM11636.203 3933.3333H11735.984V3537.3333H11636.203zM11855.422 3933.3333H11955.203V3685.0521C11970.125 3660.6927 12001.562 3633.974 12050.266 3633.974C12068.344 3633.974 12081.703 3636.3333 12094.266 3639.474V3534.9896C12084.844 3531.8333 12073.062 3529.4896 12059.703 3529.4896C12014.922 3529.4896 11981.125 3549.9115 11955.203 3576.6302V3537.3333H11855.422zM12527.984 3868.9115L12456.484 3812.3333C12435.266 3840.6146 12399.906 3859.474 12356.703 3859.474C12289.125 3859.474 12243.562 3820.974 12237.266 3755.7708H12514.625C12517.766 3742.4115 12520.906 3721.1927 12520.906 3699.1927C12520.906 3595.474 12448.625 3521.6302 12338.625 3521.6302C12208.984 3521.6302 12135.125 3618.2708 12135.125 3735.3333C12135.125 3850.8333 12214.484 3949.0521 12355.125 3949.0521C12429.766 3949.0521 12491.062 3918.4115 12527.984 3868.9115zM12338.625 3604.9115C12391.266 3604.9115 12420.344 3641.0521 12421.906 3680.3333H12243.562C12256.922 3628.474 12289.922 3604.9115 12338.625 3604.9115zM12805.344 3854.7552C12738.547 3854.7552 12690.625 3805.2708 12690.625 3735.3333C12690.625 3666.1927 12738.547 3615.9115 12803.766 3615.9115C12844.625 3615.9115 12874.484 3634.7708 12893.344 3662.2708L12972.688 3601.7708C12935.766 3553.0521 12877.625 3521.6302 12805.344 3521.6302C12668.625 3521.6302 12586.906 3619.8333 12586.906 3735.3333C12586.906 3850.8333 12668.625 3949.0521 12805.344 3949.0521C12877.625 3949.0521 12935.766 3917.6146 12972.688 3868.9115L12893.344 3808.4115C12874.484 3835.9115 12843.844 3854.7552 12805.344 3854.7552zM13076.406 3788.7708C13076.406 3885.4115 13123.547 3941.1927 13222.547 3941.1927C13255.547 3941.1927 13279.109 3937.2552 13298.75 3928.6146V3841.4115C13285.406 3846.9115 13267.328 3850.0521 13239.828 3850.0521C13200.547 3850.0521 13176.969 3832.7708 13176.969 3788.7708V3628.474H13297.969V3537.3333H13176.969V3438.3333H13076.406V3537.3333H13002.547V3628.474H13076.406zM13437.828 3468.1927C13473.188 3468.1927 13502.25 3438.3333 13502.25 3402.9896C13502.25 3367.6302 13473.188 3337.7708 13437.828 3337.7708C13402.469 3337.7708 13372.609 3367.6302 13372.609 3402.9896C13372.609 3438.3333 13402.469 3468.1927 13437.828 3468.1927zM13387.547 3933.3333H13487.328V3537.3333H13387.547zM13795.328 3521.6302C13666.469 3521.6302 13578.469 3616.6927 13578.469 3735.3333C13578.469 3853.974 13666.469 3949.0521 13795.328 3949.0521C13924.188 3949.0521 14012.188 3853.974 14012.188 3735.3333C14012.188 3616.6927 13924.188 3521.6302 13795.328 3521.6302zM13796.906 3854.7552C13730.906 3854.7552 13682.188 3804.474 13682.188 3735.3333C13682.188 3666.1927 13730.906 3615.9115 13796.906 3615.9115C13860.547 3615.9115 13908.469 3666.1927 13908.469 3735.3333C13908.469 3803.6927 13860.547 3854.7552 13796.906 3854.7552zM14103.328 3933.3333H14203.109V3674.8333C14218.031 3649.6927 14244.75 3615.9115 14295.031 3615.9115C14343.75 3615.9115 14372.812 3648.9115 14372.812 3701.5521V3933.3333H14474.172V3697.6146C14474.172 3580.5521 14405.812 3521.6302 14320.172 3521.6302C14267.531 3521.6302 14230.609 3542.0521 14203.109 3568.7708V3537.3333H14103.328z"/><path d="M10079.984 2500H10104.984V3933.3333H10079.984z"/></svg>