<svg version="1.1" viewBox="0 0 16814.891 6585" xmlns="http://www.w3.org/2000/svg" xmlns:xlink="http://www.w3.org/1999/xlink"><path d="M0 6585H16815V0H0z" fill="#fff"/><path d="M2145 1884C2156 1873 2167 1862 2177 1850C2197 1827 2217 1806 2240 1786C2247 1780 2254 1774 2261 1770C2263 1768 2263 1764 2265 1762C2256 1766 2250 1773 2240 1777C2238 1777 2236 1775 2238 1773C2245 1768 2252 1763 2258 1758H2257C2255 1758 2255 1756 2255 1754C2230 1750 2212 1767 2195 1782C2191 1784 2187 1780 2186 1780C2158 1789 2137 1814 2109 1825V1821C2098 1825 2087 1832 2075 1834C2058 1838 2043 1836 2028 1836C2005 1838 1982 1843 1959 1848C1958 1848 1958 1848 1957 1849C1945 1852 1933 1857 1922 1863L1918 1867C1914 1871 1910 1876 1905 1878C1893 1884 1884 1894 1874 1903C1873 1904 1872 1904 1871 1904C1861 1914 1851 1924 1841 1933C1840 1934 1837 1934 1835 1934C1835 1933 1836 1933 1836 1932C1838 1929 1839 1927 1841 1924L1847 1915C1850 1911 1852 1907 1855 1904C1856 1903 1856 1902 1855 1902C1854 1901 1853 1901 1852 1901C1861 1892 1873 1884 1884 1877C1883 1877 1881 1876 1882 1875C1883 1873 1884 1872 1885 1870C1885 1869 1885 1869 1886 1868C1886 1867 1885 1867 1885 1866L1876 1872C1871 1876 1868 1884 1861 1884H1858C1857 1884 1856 1884 1856 1883V1882C1856 1881 1857 1881 1857 1880C1857 1879 1858 1879 1858 1878C1858 1878 1858 1877 1859 1877C1859 1876 1860 1875 1860 1875C1860 1874 1861 1874 1861 1873C1862 1872 1863 1870 1863 1869C1863 1868 1864 1868 1864 1867C1865 1866 1865 1865 1866 1864C1867 1862 1866 1861 1865 1861C1868 1856 1873 1853 1878 1850H1877C1884 1846 1892 1842 1899 1838L1902 1835C1891 1839 1882 1844 1872 1850C1872 1850 1870 1851 1869 1852C1869 1852 1867 1853 1864 1850V1849C1866 1845 1872 1843 1875 1840C1877 1840 1879 1840 1879 1842C1940 1795 2023 1806 2093 1782C2099 1778 2104 1774 2110 1771C2119 1767 2127 1758 2138 1752C2153 1741 2164 1727 2170 1709C2170 1707 2168 1705 2168 1705C2143 1731 2115 1752 2085 1767C2045 1788 2002 1784 1960 1790C1962 1786 1966 1786 1969 1786C1969 1780 1973 1778 1977 1775H1983C1985 1775 1985 1771 1987 1771C1991 1771 1997 1769 1995 1769C1989 1761 1978 1775 1969 1769C1973 1765 1971 1760 1975 1758H1983C1983 1754 1987 1750 1987 1750C2015 1733 2042 1720 2068 1705C2062 1705 2059 1711 2053 1707C2057 1707 2053 1701 2057 1701C2078 1695 2095 1684 2116 1676C2108 1676 2103 1682 2095 1676C2099 1674 2101 1670 2106 1670V1664C2106 1662 2108 1662 2110 1662C2108 1662 2106 1660 2106 1660C2108 1656 2114 1658 2117 1654C2115 1654 2111 1654 2111 1652C2117 1644 2126 1643 2136 1641C2134 1637 2128 1641 2128 1637C2128 1635 2130 1635 2132 1635H2128C2124 1633 2126 1629 2126 1627C2137 1614 2137 1597 2143 1582C2141 1582 2139 1582 2139 1580C2120 1601 2090 1608 2062 1616H2049C2040 1620 2026 1620 2017 1614C2009 1610 2006 1605 1998 1599C1983 1590 1968 1582 1951 1576C1904 1561 1855 1553 1806 1555C1827 1544 1850 1543 1872 1536C1904 1527 1934 1515 1968 1517C1962 1515 1955 1517 1949 1517C1923 1515 1896 1523 1868 1528C1849 1532 1832 1539 1813 1543C1802 1547 1796 1558 1783 1556V1550C1802 1527 1825 1505 1855 1503C1889 1497 1921 1503 1955 1507C1980 1509 2002 1515 2027 1520C2036 1520 2038 1535 2046 1537C2057 1541 2069 1537 2080 1545C2080 1541 2078 1537 2080 1534C2088 1526 2097 1536 2105 1532C2120 1523 2092 1506 2084 1492C2084 1490 2086 1488 2086 1488C2101 1501 2112 1516 2131 1526C2140 1530 2163 1535 2159 1524C2150 1503 2131 1486 2115 1467V1459C2111 1459 2111 1457 2109 1455V1447C2101 1443 2103 1436 2100 1430C2094 1421 2098 1407 2094 1396C2090 1385 2088 1375 2086 1364C2080 1332 2073 1304 2069 1273C2065 1237 2090 1209 2107 1177C2120 1154 2135 1132 2160 1117C2166 1094 2181 1075 2196 1057C2211 1039 2236 1027 2254 1019C2280 1007 2304 1e3 2304 1e3H1e3V2e3H1927C1963 1974 1999 1962 2049 1937C2073 1927 2127 1902 2145 1884M1855 1748C1851 1748 1844 1750 1846 1746C1848 1737 1861 1737 1869 1733C1873 1731 1878 1727 1882 1729C1886 1735 1891 1733 1895 1737C1883 1748 1868 1743 1855 1748M1565 1707C1565 1707 1563 1705 1563 1703C1588 1671 1606 1641 1624 1607C1649 1594 1669 1575 1688 1554C1720 1520 1754 1490 1794 1471C1809 1465 1828 1467 1843 1473C1837 1481 1828 1479 1820 1484C1818 1484 1816 1484 1814 1482C1816 1480 1816 1478 1816 1476C1797 1497 1771 1506 1756 1531C1745 1550 1737 1574 1713 1580C1705 1582 1715 1574 1711 1576C1652 1612 1611 1656 1565 1707M1722 1582C1720 1586 1718 1586 1716 1590C1714 1594 1712 1596 1708 1598C1706 1598 1704 1598 1704 1596C1706 1588 1712 1581 1719 1579C1722 1578 1722 1580 1722 1582M1810 1865C1809 1867 1807 1869 1805 1871C1807 1871 1809 1873 1807 1874C1803 1878 1798 1882 1793 1884H1790C1788 1886 1785 1888 1783 1891C1781 1893 1770 1892 1773 1889C1778 1885 1782 1880 1787 1876C1790 1874 1793 1871 1795 1868C1796 1866 1797 1865 1799 1864C1802 1862 1812 1861 1810 1865M1776 1850C1768 1855 1761 1860 1754 1865C1746 1870 1737 1873 1729 1877C1728 1876 1727 1876 1726 1876C1719 1880 1713 1885 1707 1891L1697 1901C1696 1902 1696 1903 1694 1904C1693 1905 1690 1905 1690 1903C1689 1904 1688 1904 1687 1905C1686 1906 1685 1906 1684 1907H1682C1680 1909 1677 1911 1675 1913C1671 1917 1667 1920 1664 1925V1926L1663 1927C1663 1927 1663 1928 1662 1928C1662 1929 1661 1929 1661 1930C1661 1930 1660 1931 1659 1931L1658 1930C1658 1930 1658 1929 1657 1929C1656 1928 1656 1927 1655 1926V1925C1657 1923 1659 1921 1661 1918C1662 1917 1662 1916 1663 1916C1664 1915 1665 1913 1666 1912C1666 1911 1667 1911 1667 1910C1669 1907 1671 1905 1673 1902L1674 1901C1675 1900 1676 1898 1677 1897C1678 1896 1678 1895 1679 1893V1892C1680 1890 1680 1889 1681 1888V1887C1681 1886 1681 1886 1682 1885C1682 1884 1682 1883 1683 1882V1881C1685 1877 1688 1874 1691 1871H1690C1687 1873 1685 1875 1683 1877C1681 1879 1677 1876 1680 1874C1682 1873 1683 1871 1684 1870C1687 1867 1690 1863 1694 1860C1696 1858 1698 1857 1700 1856L1701 1855C1702 1853 1704 1852 1705 1850C1723 1833 1754 1833 1777 1822C1786 1818 1798 1824 1807 1822C1813 1822 1818 1822 1824 1826C1807 1829 1792 1840 1776 1850M1815 1718C1813 1716 1821 1718 1823 1714H1808C1806 1714 1806 1712 1806 1710C1797 1712 1785 1716 1776 1718C1763 1722 1751 1731 1736 1735C1715 1743 1698 1760 1676 1767C1674 1767 1674 1765 1674 1763C1676 1757 1683 1755 1687 1750C1687 1748 1687 1746 1685 1746C1700 1725 1721 1714 1740 1697V1691C1746 1683 1755 1680 1759 1670C1761 1664 1769 1657 1778 1653C1776 1651 1772 1651 1772 1647C1764 1647 1757 1651 1749 1645C1753 1642 1757 1640 1761 1638C1759 1638 1758 1637 1757 1635C1755 1631 1761 1627 1766 1626C1774 1624 1783 1624 1789 1618C1776 1616 1761 1622 1747 1614C1756 1589 1772 1569 1794 1557C1796 1557 1800 1557 1800 1559C1800 1568 1794 1576 1785 1578C1800 1582 1815 1582 1830 1589C1828 1593 1824 1591 1822 1591C1831 1597 1843 1593 1852 1600C1846 1606 1841 1600 1835 1600C1894 1617 1956 1630 2005 1668C1963 1689 1920 1698 1875 1708C1869 1708 1866 1708 1860 1706C1860 1708 1860 1712 1858 1712C1850 1712 1845 1712 1839 1716C1832 1722 1821 1724 1815 1718" fill="#000091"/><path d="M2745 1366C2753 1368 2764 1368 2764 1372C2760 1387 2738 1391 2726 1406H2720C2714 1410 2716 1419 2711 1419C2705 1417 2700 1419 2694 1421C2702 1429 2711 1434 2722 1432C2724 1432 2728 1436 2728 1440C2728 1440 2730 1440 2732 1438C2734 1438 2736 1438 2736 1440V1448C2730 1456 2721 1452 2713 1454C2728 1458 2743 1458 2757 1454C2768 1450 2757 1431 2765 1422C2761 1422 2765 1416 2761 1416C2765 1412 2769 1407 2772 1405C2776 1405 2781 1403 2783 1399C2783 1395 2775 1393 2777 1390C2788 1382 2798 1371 2794 1360C2792 1354 2777 1354 2768 1350C2759 1346 2747 1350 2736 1352C2727 1352 2717 1358 2708 1360C2695 1364 2683 1371 2672 1379C2685 1373 2698 1371 2713 1368C2724 1366 2733 1364 2745 1366" fill="#808080"/><path d="M3755 1e3H2681C2681 1e3 2683 1e3 2691 1005C2700 1010 2711 1016 2718 1019C2732 1026 2745 1035 2754 1049C2758 1055 2763 1066 2760 1074C2756 1083 2754 1099 2745 1102C2734 1108 2719 1108 2705 1106C2697 1106 2690 1104 2682 1102C2710 1113 2737 1127 2756 1153C2758 1157 2765 1159 2773 1159C2775 1159 2775 1163 2775 1165C2771 1169 2767 1171 2769 1176H2775C2784 1172 2783 1153 2796 1159C2805 1165 2809 1178 2804 1187C2796 1195 2789 1200 2781 1206C2779 1210 2779 1215 2781 1219C2787 1227 2789 1234 2790 1242C2796 1255 2798 1270 2803 1284C2811 1312 2818 1341 2816 1369C2816 1384 2808 1397 2814 1412C2818 1427 2827 1438 2835 1452C2843 1463 2850 1471 2856 1482C2867 1501 2888 1520 2879 1541C2873 1554 2853 1552 2839 1560C2828 1569 2837 1585 2843 1594C2852 1611 2832 1622 2818 1628C2822 1634 2829 1632 2831 1636C2833 1645 2842 1651 2837 1661C2829 1672 2807 1678 2818 1695C2826 1708 2821 1723 2816 1737C2810 1754 2795 1762 2782 1765C2771 1769 2757 1769 2746 1767C2742 1765 2738 1763 2735 1763C2703 1759 2671 1750 2639 1750C2630 1752 2620 1754 2613 1757C2604 1763 2597 1770 2590 1777C2589 1779 2587 1780 2586 1782C2585 1783 2584 1784 2584 1785L2582 1787C2576 1794 2572 1801 2567 1809C2567 1810 2566 1810 2566 1810C2566 1811 2565 1812 2564 1813C2558 1824 2553 1836 2550 1848C2537 1891 2543 1928 2552 1937C2554 1939 2614 1958 2656 1977C2676 1986 2689 1992 2701 2e3H3756V1e3z" fill="#e1000f"/><path d="M1e3 3250H1437.25V3111.75H1152.1875V2499.7969H1e3zM1676.25 2808.4531L1692.3281 2499.7969H1540.1406L1557.2812 2808.4531zM1804.8438 3250H1957.0312V2499.7969H1804.8438zM2177.7969 3250H2329.9844V2710.9219L2665.4219 3250H2860.4844V2499.7969H2708.2969V3036.7344L2372.8438 2499.7969H2177.7969zM3013.7344 3146.0469C3080.1719 3225.3438 3165.9062 3271.4375 3292.375 3271.4375C3429.5625 3271.4375 3538.875 3185.7031 3541.0156 3046.375C3541.0156 2792.375 3198.0625 2823.4531 3198.0625 2689.4844C3198.0625 2645.5469 3232.3594 2611.25 3284.875 2611.25C3341.6719 2611.25 3390.9688 2647.6875 3434.9062 2704.5L3546.375 2604.8281C3483.1406 2528.7344 3396.3281 2478.3594 3283.7969 2478.3594C3141.2656 2478.3594 3043.7344 2576.9531 3043.7344 2695.9219C3043.7344 2945.625 3386.6875 2915.625 3386.6875 3049.5938C3386.6875 3104.25 3350.25 3136.3906 3290.2344 3136.3906C3229.1406 3136.3906 3169.125 3102.1094 3124.1094 3044.2344zM3634.25 2638.0469H3865.75V3250H4017.9375V2638.0469H4249.4219V2499.7969H3634.25zM4388.75 3250H4540.9375V2499.7969H4388.75zM4684.5312 2638.0469H4916.0312V3250H5068.2188V2638.0469H5299.7031V2499.7969H4684.5312zM5878.4375 2969.2031C5878.4375 3069.9531 5820.5625 3128.8906 5727.3281 3128.8906C5631.9375 3128.8906 5575.1406 3069.9531 5575.1406 2969.2031V2499.7969H5422.9531V2956.3438C5422.9531 3153.5469 5538.7031 3271.4375 5726.25 3271.4375C5914.875 3271.4375 6030.625 3153.5469 6030.625 2956.3438V2499.7969H5878.4375zM6161.3594 2638.0469H6392.8594V3250H6545.0469V2638.0469H6776.5312V2499.7969H6161.3594zM6929.7969 3250H7081.9844V2499.7969H6929.7969zM7637.125 2478.3594C7400.2656 2478.3594 7238.4375 2660.5469 7238.4375 2874.8906C7238.4375 3089.2344 7400.2656 3271.4375 7637.125 3271.4375C7872.9062 3271.4375 8034.7344 3089.2344 8034.7344 2874.8906C8034.7344 2660.5469 7872.9062 2478.3594 7637.125 2478.3594zM7637.125 3128.8906C7495.6562 3128.8906 7394.9219 3018.5156 7394.9219 2874.8906C7394.9219 2731.2812 7495.6562 2620.9062 7637.125 2620.9062C7777.5156 2620.9062 7878.2656 2731.2812 7878.2656 2874.8906C7878.2656 3018.5156 7777.5156 3128.8906 7637.125 3128.8906zM8191.2031 3250H8343.3906V2710.9219L8678.8281 3250H8873.8906V2499.7969H8721.7031V3036.7344L8386.25 2499.7969H8191.2031z"/><path d="M3484 5306C3506 5306 3525 5323 3515 5362L3414 5389C3430 5341 3460 5306 3484 5306M3540 5470H3520C3495 5500 3467 5524 3440 5524C3412 5524 3398 5507 3398 5470C3398 5455 3400 5439 3403 5425L3567 5371C3599 5295 3560 5262 3515 5262C3437 5262 3349 5398 3349 5505C3349 5556 3373 5584 3411 5584C3456 5584 3502 5541 3540 5470M3514 5226L3607 5141V5129H3545L3490 5227H3514zM3165 5308H3219L3133 5544C3125 5564 3136 5584 3157 5584C3218 5584 3291 5532 3319 5458H3304C3282 5489 3234 5523 3198 5530L3277 5308H3358L3368 5274H3289L3319 5189H3288L3232 5274L3165 5283zM3109 5296C3116 5274 3101 5262 3090 5262C3043 5262 2986 5305 2964 5364H2979C2994 5342 3020 5318 3045 5314L2954 5550C2946 5572 2962 5584 2974 5584C3019 5584 3072 5541 3094 5482H3079C3064 5504 3038 5528 3013 5532zM3118 5202C3138 5202 3155 5185 3155 5165C3155 5145 3138 5128 3118 5128C3097 5128 3081 5145 3081 5165C3081 5186 3097 5202 3118 5202M2679 5328C2693 5328 2701 5350 2679 5399L2615 5541C2603 5568 2616 5585 2642 5585C2658 5585 2665 5581 2672 5564L2735 5398C2764 5362 2818 5324 2842 5324C2859 5324 2857 5338 2846 5360L2749 5545C2740 5563 2752 5585 2773 5585C2820 5585 2877 5542 2899 5483H2882C2867 5505 2841 5529 2816 5533L2899 5365C2910 5344 2915 5324 2915 5308C2915 5281 2900 5263 2871 5263C2830 5263 2795 5309 2745 5366V5322C2745 5291 2735 5263 2707 5263C2674 5263 2644 5315 2620 5365H2635C2652 5341 2667 5328 2679 5328M2614 5334C2625 5295 2619 5262 2590 5262C2553 5262 2541 5287 2505 5365V5321C2505 5290 2495 5262 2467 5262C2434 5262 2404 5314 2380 5364H2395C2411 5341 2426 5327 2438 5327C2452 5327 2460 5349 2438 5398L2374 5540C2362 5567 2375 5584 2401 5584C2417 5584 2424 5580 2431 5563L2492 5397C2510 5375 2526 5356 2546 5335H2614zM2265 5306C2287 5306 2306 5323 2296 5362L2195 5389C2212 5341 2241 5306 2265 5306M2321 5470H2301C2276 5500 2248 5524 2221 5524C2193 5524 2179 5507 2179 5470C2179 5455 2181 5439 2184 5425L2348 5371C2380 5295 2342 5262 2296 5262C2218 5262 2130 5398 2130 5505C2130 5556 2154 5584 2192 5584C2237 5584 2283 5541 2321 5470M1946 5308H2e3L1914 5544C1906 5564 1917 5584 1938 5584C1999 5584 2073 5532 2100 5458H2085C2063 5489 2015 5523 1979 5530L2058 5308H2139L2149 5274H2070L2100 5189H2069L2013 5274L1946 5283zM1659 5492C1659 5419 1740 5320 1786 5320C1796 5320 1806 5321 1814 5324L1767 5450C1740 5483 1698 5523 1678 5523C1666 5523 1659 5514 1659 5492M1908 5248L1883 5246L1855 5274H1850C1731 5274 1603 5422 1603 5539C1603 5566 1618 5584 1647 5584C1682 5584 1716 5534 1755 5481L1753 5500C1748 5554 1765 5584 1793 5584C1826 5584 1856 5532 1879 5482H1864C1848 5505 1833 5519 1821 5519C1809 5519 1800 5496 1821 5448zM1653 5334C1664 5295 1658 5262 1629 5262C1592 5262 1580 5287 1544 5365V5321C1544 5290 1534 5262 1505 5262C1472 5262 1442 5314 1419 5364H1434C1450 5341 1465 5327 1477 5327C1491 5327 1499 5349 1477 5398L1412 5541C1400 5568 1413 5585 1439 5585C1455 5585 1462 5581 1469 5564L1532 5397C1550 5375 1566 5356 1586 5335H1653zM1234 5573L1240 5555C1161 5540 1151 5540 1183 5454L1213 5373H1276C1315 5373 1316 5390 1310 5433H1333L1385 5290H1362C1342 5324 1327 5350 1284 5350H1221L1264 5233C1279 5191 1286 5183 1340 5183H1354C1409 5183 1416 5198 1416 5256H1438L1456 5159H1151L1145 5177C1208 5190 1214 5196 1185 5278L1120 5455C1090 5536 1078 5543 1005 5556L1e3 5574H1234zM2747 4617C2769 4617 2788 4634 2778 4673L2677 4700C2693 4652 2723 4617 2747 4617M2803 4781H2783C2758 4811 2730 4835 2703 4835C2675 4835 2661 4818 2661 4781C2661 4766 2663 4750 2666 4736L2830 4682C2862 4606 2823 4573 2778 4573C2700 4573 2612 4709 2612 4816C2612 4867 2636 4895 2674 4895C2719 4896 2765 4852 2803 4781M2777 4537L2870 4452V4440H2808L2753 4538H2777zM2428 4619H2482L2396 4855C2388 4875 2399 4895 2420 4895C2481 4895 2554 4843 2582 4769H2567C2545 4800 2497 4834 2461 4841L2540 4619H2621L2631 4585H2552L2582 4500H2551L2495 4585L2428 4595zM2372 4608C2379 4586 2364 4574 2352 4574C2305 4574 2248 4617 2226 4676H2241C2256 4654 2282 4630 2307 4626L2216 4862C2208 4884 2224 4896 2236 4896C2281 4896 2334 4853 2356 4794H2341C2326 4816 2300 4840 2275 4844zM2381 4514C2401 4514 2418 4497 2418 4477C2418 4457 2401 4440 2381 4440C2360 4440 2344 4457 2344 4477C2344 4497 2360 4514 2381 4514M2091 4844L2241 4446L2236 4439L2132 4451V4463L2152 4478C2170 4492 2164 4505 2148 4550L2034 4854C2024 4872 2037 4894 2058 4894C2105 4894 2156 4851 2178 4792H2163C2147 4815 2115 4839 2091 4844M1785 4803C1785 4730 1866 4631 1912 4631C1922 4631 1931 4632 1940 4635L1892 4761C1865 4794 1823 4834 1803 4834C1792 4835 1785 4825 1785 4803M2034 4560L2009 4558L1981 4586H1976C1857 4586 1729 4734 1729 4851C1729 4878 1744 4896 1773 4896C1808 4896 1842 4846 1881 4793L1879 4812C1874 4866 1891 4896 1919 4896C1952 4896 1982 4844 2005 4794H1990C1974 4817 1959 4831 1947 4831C1935 4831 1926 4808 1947 4761zM1455 4953C1455 4922 1485 4902 1528 4885C1542 4892 1564 4900 1592 4909C1637 4924 1654 4930 1654 4943C1654 4972 1613 4994 1538 4994C1482 4995 1455 4983 1455 4953M1578 4762C1558 4762 1551 4745 1551 4726C1551 4667 1579 4596 1624 4596C1644 4596 1651 4613 1651 4632C1651 4690 1622 4762 1578 4762M1706 4924C1706 4886 1672 4872 1617 4856C1570 4842 1548 4838 1548 4822C1548 4810 1558 4795 1578 4784C1656 4780 1705 4710 1705 4648C1705 4637 1703 4627 1700 4618H1753L1763 4584H1673C1661 4576 1646 4572 1629 4572C1547 4572 1494 4644 1494 4708C1494 4749 1518 4777 1556 4782C1518 4800 1496 4819 1496 4843C1496 4857 1501 4867 1513 4876C1425 4902 1389 4935 1389 4973C1389 5014 1443 5031 1507 5031C1615 5032 1706 4973 1706 4924M1298 4684C1337 4684 1338 4701 1332 4744H1355L1407 4601H1384C1364 4635 1349 4661 1306 4661H1219L1262 4544C1277 4502 1285 4494 1338 4494H1376C1431 4494 1438 4509 1438 4567H1460L1478 4470H1151L1145 4488C1208 4501 1214 4507 1185 4589L1120 4766C1090 4847 1078 4854 1005 4867L1e3 4885H1364L1429 4782H1404C1362 4824 1319 4861 1238 4861C1141 4861 1150 4856 1182 4766L1212 4685H1298zM1345 4440L1438 4372V4360H1376L1321 4440zM2735 3929C2757 3929 2776 3946 2766 3985L2665 4012C2681 3963 2711 3929 2735 3929M2791 4093H2771C2746 4123 2718 4147 2691 4147C2663 4147 2649 4130 2649 4093C2649 4078 2651 4062 2654 4048L2818 3994C2850 3918 2811 3885 2766 3885C2688 3885 2600 4021 2600 4128C2600 4179 2624 4207 2662 4207C2707 4207 2753 4164 2791 4093M2765 3849L2858 3764V3752H2796L2741 3850H2765zM2416 3930H2471L2385 4166C2377 4186 2388 4206 2409 4206C2470 4206 2544 4154 2571 4080H2556C2534 4111 2486 4145 2450 4152L2529 3930H2610L2620 3896H2541L2571 3811H2540L2484 3896L2417 3905V3930zM2388 3957C2399 3918 2393 3885 2364 3885C2327 3885 2315 3910 2279 3988V3944C2279 3913 2269 3885 2241 3885C2208 3885 2178 3937 2154 3987H2169C2185 3964 2200 3950 2212 3950C2226 3950 2234 3972 2212 4021L2148 4163C2136 4190 2149 4207 2175 4207C2191 4207 2198 4203 2205 4186L2268 4020C2286 3998 2302 3979 2322 3958H2388zM2039 3929C2061 3929 2080 3946 2070 3985L1969 4012C1985 3963 2015 3929 2039 3929M2095 4093H2075C2050 4123 2022 4147 1995 4147C1967 4147 1953 4130 1953 4093C1953 4078 1955 4062 1958 4048L2122 3994C2154 3918 2116 3885 2070 3885C1992 3885 1904 4021 1904 4128C1904 4179 1928 4207 1966 4207C2011 4207 2057 4164 2095 4093M1713 4159C1697 4159 1674 4144 1674 4131C1674 4127 1681 4108 1690 4085L1716 4015C1744 3981 1788 3944 1813 3944C1828 3944 1839 3954 1839 3975C1838 4041 1778 4159 1713 4159M1895 3950C1895 3902 1883 3884 1849 3884C1807 3884 1768 3929 1728 3983L1812 3757L1807 3750L1703 3762V3774L1723 3789C1741 3803 1735 3817 1719 3861L1628 4100C1620 4120 1611 4144 1611 4150C1611 4178 1649 4205 1684 4205C1763 4207 1895 4062 1895 3950M1588 3919C1594 3897 1580 3885 1568 3885C1521 3885 1464 3928 1442 3987H1457C1472 3965 1498 3941 1523 3937L1432 4173C1424 4195 1440 4207 1452 4207C1497 4207 1550 4164 1572 4105H1557C1542 4127 1516 4151 1491 4155zM1598 3825C1618 3825 1635 3808 1635 3788C1635 3768 1618 3751 1598 3751C1577 3751 1561 3768 1561 3788C1561 3808 1577 3825 1598 3825M1367 3780H1151L1145 3798C1208 3811 1214 3817 1185 3899L1120 4076C1090 4157 1078 4164 1005 4177L1e3 4195H1328L1399 4068H1374C1333 4113 1286 4170 1213 4170C1158 4170 1150 4160 1181 4075L1246 3898C1276 3817 1288 3810 1361 3797z"/><path d="M11094.656 3050H11206.25V2499.8594H11094.656zM11346.938 3050H11446.75V2791.4375C11461.672 2766.2812 11488.406 2732.4844 11538.703 2732.4844C11587.422 2732.4844 11616.5 2765.5 11616.5 2818.1562V3050H11717.891V2814.2188C11717.891 2697.125 11649.516 2638.1719 11563.844 2638.1719C11511.188 2638.1719 11474.25 2658.6094 11446.75 2685.3281V2653.8906H11346.938zM11856.203 2905.3906C11856.203 3002.0625 11903.359 3057.8594 12002.391 3057.8594C12035.391 3057.8594 12058.969 3053.9219 12078.625 3045.2812V2958.0469C12065.266 2963.5469 12047.188 2966.6875 12019.672 2966.6875C11980.391 2966.6875 11956.812 2949.4062 11956.812 2905.3906V2745.0625H12077.844V2653.8906H11956.812V2554.875H11856.203V2653.8906H11782.328V2745.0625H11856.203zM12217.734 2584.7344C12253.094 2584.7344 12282.172 2554.875 12282.172 2519.5C12282.172 2484.1406 12253.094 2454.2656 12217.734 2454.2656C12182.359 2454.2656 12152.5 2484.1406 12152.5 2519.5C12152.5 2554.875 12182.359 2584.7344 12217.734 2584.7344zM12167.438 3050H12267.25V2653.8906H12167.438zM12411.844 2905.3906C12411.844 3002.0625 12459 3057.8594 12558.031 3057.8594C12591.031 3057.8594 12614.609 3053.9219 12634.266 3045.2812V2958.0469C12620.906 2963.5469 12602.828 2966.6875 12575.312 2966.6875C12536.031 2966.6875 12512.453 2949.4062 12512.453 2905.3906V2745.0625H12633.484V2653.8906H12512.453V2554.875H12411.844V2653.8906H12337.969V2745.0625H12411.844zM12984 2878.6719C12984 2936.0469 12954.141 2971.4062 12899.906 2971.4062C12844.891 2971.4062 12815.031 2936.0469 12815.031 2878.6719V2653.8906H12714.422V2873.9531C12714.422 2992.625 12782.797 3065.7188 12899.125 3065.7188C13015.438 3065.7188 13084.594 2992.625 13084.594 2873.9531V2653.8906H12984zM13194.641 3050H13294.453V2460.5625H13194.641zM13644.172 2591.0156L13738.484 2460.5625H13630.031L13548.297 2591.0156zM13778.562 2985.5469L13707.047 2928.9688C13685.828 2957.2656 13650.469 2976.125 13607.234 2976.125C13539.656 2976.125 13494.062 2937.6094 13487.781 2872.375H13765.203C13768.359 2859.0156 13771.5 2837.7969 13771.5 2815.7969C13771.5 2712.0469 13699.188 2638.1719 13589.156 2638.1719C13459.484 2638.1719 13385.609 2734.8438 13385.609 2851.9531C13385.609 2967.4844 13464.984 3065.7188 13605.672 3065.7188C13680.328 3065.7188 13741.625 3035.0625 13778.562 2985.5469zM13589.156 2721.4844C13641.812 2721.4844 13670.891 2757.6406 13672.469 2796.9375H13494.062C13507.422 2745.0625 13540.438 2721.4844 13589.156 2721.4844zM14052.859 2851.9531C14052.859 2967.4844 14129.094 3065.7188 14254.062 3065.7188C14305.141 3065.7188 14345.219 3050 14376.656 3022.5V3050H14477.25V2460.5625H14376.656V2681.4062C14345.219 2653.8906 14305.141 2638.1719 14254.062 2638.1719C14129.094 2638.1719 14052.859 2736.4219 14052.859 2851.9531zM14157.391 2851.9531C14157.391 2782.7812 14200.609 2732.4844 14268.203 2732.4844C14313.781 2732.4844 14349.938 2752.1406 14376.656 2791.4375V2912.4688C14350.719 2950.9688 14314.578 2971.4062 14268.203 2971.4062C14200.609 2971.4062 14157.391 2921.1094 14157.391 2851.9531zM14961.375 2985.5469L14889.859 2928.9688C14868.641 2957.2656 14833.281 2976.125 14790.047 2976.125C14722.469 2976.125 14676.875 2937.6094 14670.594 2872.375H14948.016C14951.172 2859.0156 14954.312 2837.7969 14954.312 2815.7969C14954.312 2712.0469 14882 2638.1719 14771.969 2638.1719C14642.297 2638.1719 14568.422 2734.8438 14568.422 2851.9531C14568.422 2967.4844 14647.797 3065.7188 14788.484 3065.7188C14863.141 3065.7188 14924.438 3035.0625 14961.375 2985.5469zM14771.969 2721.4844C14824.625 2721.4844 14853.703 2757.6406 14855.281 2796.9375H14676.875C14690.234 2745.0625 14723.25 2721.4844 14771.969 2721.4844zM15263.969 3050H15363.781V2460.5625H15263.969zM15596.406 3065.7188C15642.766 3065.7188 15689.141 3044.5 15714.297 3013.0625V3050H15814.891V2793.7969C15814.891 2706.5469 15755.938 2638.1719 15641.203 2638.1719C15569.688 2638.1719 15510.734 2668.0469 15475.375 2716.7656L15549.25 2772.5625C15567.328 2741.9219 15599.547 2725.4219 15638.062 2725.4219C15682.859 2725.4219 15714.297 2752.1406 15714.297 2793.7969V2804L15594.828 2824.4375C15509.172 2838.5938 15462.797 2884.9531 15462.797 2945.4688C15462.797 3020.1406 15517.031 3065.7188 15596.406 3065.7188zM15561.828 2941.5469C15561.828 2916.3906 15578.328 2899.1094 15620.766 2892.0312L15714.297 2875.5312V2929.75C15693.859 2961.9844 15661.641 2985.5469 15616.844 2985.5469C15583.047 2985.5469 15561.828 2966.6875 15561.828 2941.5469z"/><path d="M11094.656 3735.2865C11094.656 3850.8177 11170.891 3949.0521 11295.859 3949.0521C11346.938 3949.0521 11387.016 3933.3333 11418.453 3905.8333V3933.3333H11519.047V3343.8958H11418.453V3564.7396C11387.016 3537.224 11346.938 3521.5052 11295.859 3521.5052C11170.891 3521.5052 11094.656 3619.7552 11094.656 3735.2865zM11199.188 3735.2865C11199.188 3666.1146 11242.406 3615.8177 11310 3615.8177C11355.578 3615.8177 11391.734 3635.474 11418.453 3674.7708V3795.8021C11392.516 3834.3021 11356.375 3854.7396 11310 3854.7396C11242.406 3854.7396 11199.188 3804.4427 11199.188 3735.2865zM11688.812 3468.0677C11724.172 3468.0677 11753.25 3438.2083 11753.25 3402.8333C11753.25 3367.474 11724.172 3337.599 11688.812 3337.599C11653.438 3337.599 11623.578 3367.474 11623.578 3402.8333C11623.578 3438.2083 11653.438 3468.0677 11688.812 3468.0677zM11638.516 3933.3333H11738.328V3537.224H11638.516zM11857.781 3933.3333H11957.594V3684.9896C11972.516 3660.6146 12003.953 3633.8958 12052.688 3633.8958C12070.766 3633.8958 12084.125 3636.2552 12096.703 3639.3958V3534.8646C12087.266 3531.724 12075.484 3529.3646 12062.109 3529.3646C12017.312 3529.3646 11983.531 3549.8021 11957.594 3576.5208V3537.224H11857.781zM12541.516 3868.8802L12470 3812.3021C12448.781 3840.599 12413.422 3859.4583 12370.188 3859.4583C12302.609 3859.4583 12257.016 3820.9427 12250.734 3755.7083H12528.156C12531.312 3742.349 12534.453 3721.1302 12534.453 3699.1302C12534.453 3595.3802 12462.141 3521.5052 12352.109 3521.5052C12222.438 3521.5052 12148.562 3618.1771 12148.562 3735.2865C12148.562 3850.8177 12227.938 3949.0521 12368.625 3949.0521C12443.281 3949.0521 12504.578 3918.3958 12541.516 3868.8802zM12352.109 3604.8177C12404.766 3604.8177 12433.844 3640.974 12435.422 3680.2708H12257.016C12270.375 3628.3958 12303.391 3604.8177 12352.109 3604.8177zM12811.094 3854.7396C12744.297 3854.7396 12696.344 3805.224 12696.344 3735.2865C12696.344 3666.1146 12744.297 3615.8177 12809.516 3615.8177C12850.391 3615.8177 12880.25 3634.6771 12899.125 3662.1927L12978.5 3601.6771C12941.562 3552.9427 12883.406 3521.5052 12811.094 3521.5052C12674.344 3521.5052 12592.609 3619.7552 12592.609 3735.2865C12592.609 3850.8177 12674.344 3949.0521 12811.094 3949.0521C12883.406 3949.0521 12941.562 3917.6146 12978.5 3868.8802L12899.125 3808.3646C12880.25 3835.8802 12849.609 3854.7396 12811.094 3854.7396zM13075.156 3788.724C13075.156 3885.3958 13122.312 3941.1927 13221.344 3941.1927C13254.344 3941.1927 13277.922 3937.2552 13297.578 3928.6146V3841.3802C13284.219 3846.8802 13266.141 3850.0208 13238.625 3850.0208C13199.344 3850.0208 13175.766 3832.7396 13175.766 3788.724V3628.3958H13296.797V3537.224H13175.766V3438.2083H13075.156V3537.224H13001.281V3628.3958H13075.156zM13440.609 3468.0677C13475.969 3468.0677 13505.047 3438.2083 13505.047 3402.8333C13505.047 3367.474 13475.969 3337.599 13440.609 3337.599C13405.234 3337.599 13375.375 3367.474 13375.375 3402.8333C13375.375 3438.2083 13405.234 3468.0677 13440.609 3468.0677zM13390.312 3933.3333H13490.125V3537.224H13390.312zM13798.188 3521.5052C13669.297 3521.5052 13581.281 3616.6146 13581.281 3735.2865C13581.281 3853.9583 13669.297 3949.0521 13798.188 3949.0521C13927.094 3949.0521 14015.109 3853.9583 14015.109 3735.2865C14015.109 3616.6146 13927.094 3521.5052 13798.188 3521.5052zM13799.766 3854.7396C13733.75 3854.7396 13685.016 3804.4427 13685.016 3735.2865C13685.016 3666.1146 13733.75 3615.8177 13799.766 3615.8177C13863.422 3615.8177 13911.375 3666.1146 13911.375 3735.2865C13911.375 3803.6615 13863.422 3854.7396 13799.766 3854.7396zM14106.281 3933.3333H14206.094V3674.7708C14221.016 3649.6146 14247.75 3615.8177 14298.047 3615.8177C14346.766 3615.8177 14375.844 3648.8333 14375.844 3701.4896V3933.3333H14477.234V3697.5521C14477.234 3580.4583 14408.859 3521.5052 14323.188 3521.5052C14270.531 3521.5052 14233.594 3541.9427 14206.094 3568.6615V3537.224H14106.281z"/><path d="M10082.156 2500H10107.156V3933.3333H10082.156z"/></svg>